<svg xmlns="http://www.w3.org/2000/svg" xmlns:xlink="http://www.w3.org/1999/xlink" viewBox="0,0,256,256" width="50px" height="50px" fill-rule="nonzero"><g fill="#ffb400" fill-rule="nonzero" stroke="none" stroke-width="1" stroke-linecap="butt" stroke-linejoin="miter" stroke-miterlimit="10" stroke-dasharray="" stroke-dashoffset="0" font-family="none" font-weight="none" font-size="none" text-anchor="none" style="mix-blend-mode: normal"><g transform="scale(5.12,5.12)"><path d="M22.85156,5.80273c-2.228,0 -4.57973,0.41703 -6.80273,1.20703c-2.662,0.946 -7.69509,3.06414 -11.49609,6.61914c-3.859,3.61 -4.81102,7.08286 -4.41602,9.13086c0.741,3.838 4.43037,6.46544 7.23438,8.39844c-2.048,1.254 -4.27306,2.98117 -5.16406,4.95117c-0.841,1.858 -0.88586,3.77167 -0.13086,5.38867c0.564,1.207 1.52717,2.10253 2.57617,2.39453c0.726,0.202 1.47647,0.30469 2.23047,0.30469c2.978,0 5.91592,-1.62523 7.66992,-4.24023c0.263,-0.392 0.48959,-0.7998 0.68359,-1.2168c0.107,0.127 0.21803,0.24747 0.33203,0.35547c0.957,0.907 2.09766,0.90625 2.47266,0.90625c1.156,0 1.96964,-0.50105 2.55664,-1.12305c0.49,0.326 1.0665,0.5 1.6875,0.5c0.075,0 0.15256,-0.00077 0.22656,-0.00977c1.243,-0.152 2.58398,-1.36523 2.58398,-1.36523c0.052,0.045 0.10416,0.08691 0.16016,0.12891c0.528,0.398 1.1923,0.5918 2.0293,0.5918c0.139,0 0.28273,-0.00367 0.42773,-0.01367c1.023,-0.069 1.7943,-0.31358 2.2793,-0.51758c0.488,-0.178 1.19439,-0.49272 1.90039,-1.01172c0.171,-0.126 0.33433,-0.25844 0.48633,-0.39844c0.311,0.189 0.66197,0.32534 1.04297,0.40234c0.186,0.038 0.38008,0.05664 0.58008,0.05664c0.526,0 1.09528,-0.12858 1.73828,-0.39258c0.522,-0.18 1.27534,-0.50269 2.02734,-1.05469c1.742,-1.281 2.58958,-2.80349 2.51758,-4.52148c-0.002,-0.053 -0.00577,-0.10616 -0.00977,-0.16016c0.257,-0.028 0.52287,-0.04102 0.79688,-0.04102c0.339,0 0.69655,0.02245 1.06055,0.06445c2.385,0.279 2.89767,1.40434 2.88867,1.77734c-0.015,0.098 -0.18475,0.25552 -0.34375,0.35352c-1.009,0.624 -1.429,1.4342 -1.25,2.4082c0.191,1.054 1.07634,1.79297 2.15234,1.79297c0.205,0 0.3842,-0.02578 0.5332,-0.05078c1.279,-0.216 3.71612,-1.80325 3.82813,-4.65625c0.066,-1.656 -0.61238,-3.35044 -1.85937,-4.64844c-1.567,-1.63 -3.8647,-2.52734 -6.4707,-2.52734h-0.06055c-1.076,0.006 -2.121,0.15345 -3.125,0.43945l-0.03125,-0.22656c-0.061,-0.429 -0.08416,-0.58989 -0.03516,-0.96289c0.044,-0.335 0.24866,-0.94042 0.34766,-1.23242c0.139,-0.408 0.24008,-0.70267 0.20508,-1.13867c-0.068,-0.851 -0.77519,-2.2965 -2.99219,-2.3125h-0.00781h-0.05469c-1.97,0 -3.18719,0.57217 -3.61719,1.70117c-0.054,0.141 -0.11759,0.32701 -0.18359,0.54102c-0.46,-0.484 -1.19903,-0.86505 -2.33203,-0.87305h-0.00781h-0.05664c-0.235,0 -0.45887,0.00939 -0.67187,0.02539c2.842,-2.633 4.65347,-6.41411 3.73047,-10.03711c-0.897,-3.52 -4.67819,-5.70703 -9.86719,-5.70703zM22.84961,7.79297c3.99,0 7.25036,1.49194 7.94336,4.21094c1.014,3.976 -2.43937,8.73141 -6.85937,10.44141c-2.297,0.889 -4.36312,1.17773 -5.95312,1.17773c-1.141,0 -2.03766,-0.14999 -2.59766,-0.33398c-1.524,-0.5 -2.41872,-1.50331 -2.63672,-2.07031c-0.085,-0.222 -0.233,-0.59561 0,-0.72461c0.04,-0.022 0.07437,-0.03711 0.10938,-0.03711c0.092,0 0.19961,0.09444 0.47461,0.39844c0.319,0.352 1.48272,1.22266 3.63672,1.22266c0.303,0 0.6277,-0.01569 0.9707,-0.05469c7.295,-0.818 11.68878,-6.48711 10.30078,-9.53711c-0.51,-1.12 -2.29939,-1.91601 -4.90039,-1.91602c-2.357,0 -5.3807,0.65531 -8.7207,2.32031c-8.576,4.273 -9.04028,7.79481 -9.11328,9.13281c-0.201,3.68 4.54142,5.61747 7.10742,8.35547c0.034,0.036 0.06661,0.07142 0.09961,0.10742c0.481,-0.265 0.98738,-0.54341 1.48437,-0.81641c1.294,-0.711 2.51203,-1.3775 3.08203,-1.6875c0.903,-1.312 2.73755,-2.75977 4.06055,-2.75977c2.116,0 1.38672,3.03906 1.38672,3.03906c0,0 0.04356,-0.14158 0.10156,-0.14258c0.046,-0.001 0.19459,-0.23633 0.55859,-0.23633c0.109,0 0.23572,0.02117 0.38672,0.07617c0.672,0.246 0.51944,0.71762 0.52344,0.76563c0.008,0.093 -0.79295,2.79534 -1.12695,4.52734c-0.159,0.826 -0.06653,1.42773 -0.01953,1.42773c0.066,0 0.19922,-0.2115 0.32422,-0.4375l-0.00195,-0.00586c0,0 0.093,-0.16956 0.25,-0.47656c0.02,-0.041 0.03125,-0.06641 0.03125,-0.06641l0.00195,0.00195c0.184,-0.362 0.44319,-0.89178 0.74219,-1.55078c0.587,-1.294 2.82758,-6.28684 3.01758,-6.83984c0.19,-0.553 0.28981,-1.12514 0.38281,-1.36914c0.092,-0.24 0.85672,-0.42187 1.76172,-0.42187h0.04883c0.926,0.007 1.01839,0.40042 1.02539,0.48242c0.007,0.082 -0.44097,1.17717 -0.54297,1.95117c-0.102,0.774 -0.00392,1.1625 0.08008,1.8125c0.056,0.426 0.32177,0.96517 0.63477,1.57617c0.957,-1.566 2.64364,-4.56139 2.80664,-5.40039c0.111,-0.573 0.28981,-1.12319 0.38281,-1.36719c0.092,-0.24 0.85772,-0.42383 1.76172,-0.42383h0.04688c0.926,0.007 1.02034,0.40237 1.02734,0.48438c0.007,0.082 -0.44097,1.17717 -0.54297,1.95117c-0.102,0.774 -0.00392,1.16055 0.08008,1.81055c0.072,0.556 0.50369,1.30625 0.92969,2.15625c1.165,-0.574 2.55516,-0.96075 4.16016,-0.96875h0.05078c4.119,0 6.4417,2.67438 6.3457,5.10938c-0.072,1.922 -1.83997,2.71548 -2.16797,2.77148c-0.08,0.014 -0.14908,0.02344 -0.20508,0.02344c-0.111,0 -0.17427,-0.04006 -0.19727,-0.16406c-0.024,-0.129 0.0618,-0.18833 0.3418,-0.36133c0.28,-0.173 1.11662,-0.74701 1.26563,-1.79102c0.15,-1.044 -0.63395,-3.53691 -4.62695,-4.00391c-0.454,-0.053 -0.88302,-0.07617 -1.29102,-0.07617c-1.263,0 -2.30716,0.2358 -3.16016,0.5918c0.21,0.543 0.36467,1.10773 0.38867,1.67773c0.052,1.252 -0.81294,2.17689 -1.71094,2.83789c-0.523,0.385 -1.08478,0.64187 -1.55078,0.79688c-0.312,0.132 -0.70911,0.26563 -1.03711,0.26563c-0.066,0 -0.1285,-0.00558 -0.1875,-0.01758c-0.779,-0.157 -1.19406,-0.84805 -0.66406,-2.37305c0.287,-0.825 1.11236,-2.08206 2.44336,-3.16406c-0.304,-0.625 -0.64245,-1.2617 -0.81445,-1.8457c-0.339,-1.153 -0.44336,-1.84961 -0.44336,-1.84961c0,0 -1.09963,2.2747 -2.51563,4.3457c-0.082,0.12 -0.16314,0.23652 -0.24414,0.35352c0.278,0.645 0.49834,1.32953 0.52734,2.01953c0.052,1.251 -0.49067,2.19642 -1.38867,2.85742c-0.487,0.358 -1.00517,0.60567 -1.45117,0.76367c-0.286,0.124 -0.8645,0.32681 -1.6875,0.38281c-0.099,0.007 -0.19697,0.01172 -0.29297,0.01172c-0.339,0 -0.64398,-0.04841 -0.83398,-0.19141c-0.333,-0.25 -0.37317,-0.56233 -0.20117,-0.98633c0.146,-0.36 1.23634,-1.60627 2.15234,-2.69727c0.252,-0.301 0.49398,-0.60758 0.70898,-0.89258c-0.003,-0.007 -0.00391,-0.01172 -0.00391,-0.01172c0,0 0.16555,-0.21389 0.43555,-0.58789c-0.334,-0.719 -0.75898,-1.47044 -0.95898,-2.14844c-0.339,-1.153 -0.44141,-1.85156 -0.44141,-1.85156c0,0 -1.11344,2.85386 -2.27344,5.13086c-0.898,1.763 -1.49758,2.83178 -1.76758,3.30078c-0.002,0.012 -0.00391,0.01758 -0.00391,0.01758c0,0 -0.03937,0.06878 -0.10937,0.17578c-0.034,0.058 -0.05078,0.08789 -0.05078,0.08789c0,0 -0.00095,-0.00381 -0.00195,-0.00781c-0.301,0.444 -0.97744,1.31445 -1.64844,1.31445c-1.844,0 -1.16602,-3.74219 -1.16602,-3.74219c0,0 -0.53848,1.38617 -1.14648,2.57617c-0.495,0.97 -0.94564,1.79102 -1.93164,1.79102c-0.285,0 -0.73342,-0.00928 -1.10742,-0.36328c-0.847,-0.804 -1.49419,-2.84578 -1.36719,-4.42578c0.108,-1.345 0.31466,-2.27573 0.59766,-3.05273c-0.507,0.276 -1.09055,0.60217 -1.68555,0.95117c-0.305,0.179 -0.61206,0.36106 -0.91406,0.53906c0.01,0.018 0.0203,0.03669 0.0293,0.05469c0.758,1.464 0.95764,4.66886 -0.69336,7.13086c-1.339,1.997 -3.61053,3.36133 -6.01953,3.36133c-0.562,0 -1.13127,-0.07442 -1.69727,-0.23242c-0.966,-0.269 -2.42697,-2.26678 -1.16797,-5.05078c1.11,-2.454 5.5478,-4.77747 6.7168,-5.35547c0.098,-0.054 0.20726,-0.11278 0.32227,-0.17578c-2.331,-2.039 -8.1547,-4.78867 -8.9707,-9.01367c-0.23,-1.189 0.32727,-4.03569 3.82227,-7.30469c2.939,-2.749 7.02869,-4.85331 10.80469,-6.19531c2.079,-0.739 4.19467,-1.0918 6.13867,-1.0918zM23.3418,12.55273c2.13,0 2.99861,0.61849 3.09961,0.77149c0.14,0.31 0.10836,1.00208 -0.43164,1.95508c-1.157,2.04 -4.17002,4.30558 -8.29102,4.76758c-0.257,0.029 -0.50805,0.04297 -0.74805,0.04297c-1.541,0 -2.1815,-0.58775 -2.1875,-0.59375c-0.358,-0.396 -0.93183,-1.0283 -1.92383,-1.0293c-0.37,0 -0.73027,0.09711 -1.07227,0.28711c-0.291,0.161 -1.70148,1.07006 -0.89648,3.16406c0.437,1.136 1.802,2.57781 3.875,3.25781c0.554,0.182 1.23252,0.30895 1.97852,0.37695c-0.302,0.3 -0.56987,0.60262 -0.79687,0.89063c-0.645,0.352 -1.65008,0.90242 -2.70508,1.48242l-0.19922,0.10742c-0.645,-0.568 -1.33286,-1.09528 -2.00586,-1.61328c-2.192,-1.686 -3.62287,-2.89602 -3.54687,-4.29102c0.161,-2.948 4.44762,-5.68684 8.01562,-7.46484c2.732,-1.361 5.51494,-2.11133 7.83594,-2.11133zM25.88672,23.73828c-0.017,0.065 -0.03183,0.13217 -0.04883,0.20117c-0.057,0.23 -0.12122,0.48884 -0.19922,0.71484c-0.066,0.18 -0.34298,0.82034 -0.70898,1.65234c-0.056,-0.032 -0.11287,-0.06184 -0.17188,-0.08984c-0.1,-0.582 -0.31008,-1.18022 -0.70508,-1.69922c0.198,-0.07 0.39661,-0.14466 0.59961,-0.22266c0.416,-0.161 0.82838,-0.34664 1.23438,-0.55664zM21.29297,27.01758c-0.344,0 -0.90188,0.29986 -1.42187,0.88086c-0.448,0.502 -1.21136,1.79495 -1.56836,2.87695c-0.71,2.15 -0.40439,4.3348 0.09961,4.4668c0.015,0.004 0.03187,0.00586 0.04688,0.00586c0.59,0 1.51684,-2.75561 1.96484,-3.84961c0.289,-0.704 1.41202,-3.82714 1.16602,-4.24414c-0.054,-0.091 -0.15411,-0.13672 -0.28711,-0.13672zM36.23047,30.55859c-0.746,0.659 -1.17528,1.34977 -1.36328,1.75977c-0.479,1.044 -0.50242,1.37842 -0.35742,1.48242c0.697,-0.25 1.84742,-0.85375 1.85742,-2.46875c0.002,-0.242 -0.04972,-0.50244 -0.13672,-0.77344zM12.14844,32.33789c-0.072,0.042 -0.13908,0.08305 -0.20508,0.12305v0.00195c0,0 -0.03089,0.01778 -0.08789,0.05078c-0.344,0.206 -0.62831,0.37619 -0.82031,0.49219c-0.847,0.529 -2.12428,1.38927 -3.11328,2.32227c-1.623,1.531 -1.96342,3.65634 -1.10742,4.15234c0.183,0.106 0.42417,0.1582 0.70117,0.1582c0.92,0 2.24472,-0.5785 3.26172,-1.6875c1.388,-1.515 1.96109,-3.43428 1.37109,-5.61328zM30.16797,32.58789c-0.288,0.378 -0.55325,0.71405 -0.78125,0.99805c-0.392,0.488 -1.38867,1.55859 -1.38867,1.55859c0,0 -0.14108,0.13392 -0.08008,0.16992c0.02,0.012 0.04522,0.01758 0.07422,0.01758c0.095,0 0.23477,-0.05676 0.38477,-0.13477c0.553,-0.348 1.79192,-1.21405 1.79492,-2.49805c0,-0.037 -0.00091,-0.07333 -0.00391,-0.11133z"></path></g></g></svg>